<?xml version="1.0" encoding="UTF-8"?>
<svg id="Layer_1" data-name="Layer 1" xmlns="http://www.w3.org/2000/svg" viewBox="0 0 38 38">
  <defs>
    <style>
      .cls-1 {
        fill-rule: evenodd;
      }

      .cls-1, .cls-2 {
        fill: #00aeef;
        stroke-width: 0px;
      }
    </style>
  </defs>
  <path class="cls-1" d="m32.9,21.2h-5.6c-.3,0-.5.2-.5.5v4.9c0,.1-.1.3-.3.3s-.3-.1-.3-.3v-3.3h-4.6c-.3,0-.5.2-.5.5v4.6c0,.2-.1.3-.3.3s-.3-.1-.3-.3v-3.3h-4.5c-.3,0-.5.2-.5.5v4.3c0,.2-.1.3-.3.3s-.3-.1-.3-.3v-3.3h-4.6c-.3,0-.5.2-.5.5v4c0,.1-.1.3-.3.3s-.3-.1-.3-.3v-3h-4.6c-.3,0-.5.2-.5.5v4c0,.3.2.5.5.5h27.9c.3,0,.5-.2.5-.5v-5.1h0v-6c0-.3-.2-.5-.5-.5Z"/>
  <path class="cls-1" d="m32.3,14.6c.3,0,.5-.2.5-.5s-.2-.5-.5-.5h-.9c.2-.3.3-.7.3-1.1,0-1.2-.9-2.1-2.1-2.1s-2.1.9-2.1,2.1.1.8.3,1.1h-2.8c.2-.3.3-.7.3-1.1,0-1.2-.9-2.1-2.1-2.1s-2.1.9-2.1,2.1.1.8.3,1.1h-4.6c.2-.3.3-.7.3-1.1,0-1.2-1-2.1-2.1-2.1s-2.1.9-2.1,2.1.1.8.3,1.1h-2.8c.2-.3.3-.7.3-1.1,0-1.2-.9-2.1-2.1-2.1s-2.1.9-2.1,2.1.1.8.3,1.1h-.9c-.3,0-.5.2-.5.5s.2.5.5.5h26.5Zm-2.7-2.7c.3,0,.6.3.6.6s-.3.6-.6.6-.6-.3-.6-.6.3-.6.6-.6Zm-6.4,0c.3,0,.6.3.6.6s-.3.6-.6.6-.6-.3-.6-.6.3-.6.6-.6Zm-8.2,0c.3,0,.6.3.6.6s-.3.6-.6.6-.6-.3-.6-.6.3-.6.6-.6Zm-6.4,0c.3,0,.6.3.6.6s-.3.6-.6.6-.6-.3-.6-.6.3-.6.6-.6Z"/>
  <rect class="cls-2" x="9.8" y="18.2" width="1.6" height="1.6"/>
  <path class="cls-1" d="m14.4,15.8h-7.6c-.3,0-.5.2-.5.5v7.6c0,.3.2.5.5.5h7.6c.3,0,.5-.2.5-.5v-7.6c0-.3-.2-.5-.5-.5Zm-2.4,4.3c0,.2-.1.3-.3.3h-1.9v1.9c0,.2-.1.3-.3.3s-.3-.1-.3-.3v-4.4c0-.2.1-.3.3-.3h2.2c.2,0,.3.1.3.3v2.2Z"/>
  <path class="cls-1" d="m15.7,16.3v6.3c0,.3.2.5.5.5s.5-.2.5-.5v-6.3c0-.3-.2-.5-.5-.5s-.5.2-.5.5Z"/>
  <path class="cls-1" d="m5.1,23.2c.3,0,.5-.2.5-.5v-6.3c0-.3-.2-.5-.5-.5s-.5.2-.5.5v6.3c0,.3.2.5.5.5Z"/>
  <path class="cls-1" d="m20.6,22.6h2.7c.3,0,.5-.2.5-.5v-2h.9c.3,0,.5-.2.5-.5s0-.3-.1-.3l-2.7-3.4c-.2-.2-.6-.2-.7,0l-2.7,3.5c-.1.1-.1.3,0,.5,0,.2.2.3.4.3h.9v2c0,.3.2.5.5.5Z"/>
  <path class="cls-1" d="m20,13h.5c0-.2,0-.3,0-.5,0-1.5,1.2-2.6,2.6-2.6s2.6,1.2,2.6,2.6,0,.3,0,.5h1.3c0-.2,0-.3,0-.5,0-1.5,1.2-2.6,2.6-2.6s2.6,1.2,2.6,2.6,0,.3,0,.5h.5c.3,0,.5-.2.5-.5v-2c0-1.4-1.2-2.5-2.6-2.5h-.2l-1.3-3c0-.2-.3-.3-.5-.3h-6.3c-.3,0-.5.2-.5.4l-.5,2.9h-1.3c-.3,0-.5.2-.5.5v4.1c0,.3.2.5.5.5Zm9.2-5.1h-3.9v-2.3h2.9l1,2.3Zm-6.5-2.3h1.6v2.3h-2l.4-2.3Z"/>
  <path class="cls-1" d="m5.4,13h.5c0-.2,0-.3,0-.5,0-1.5,1.2-2.6,2.6-2.6s2.6,1.2,2.6,2.6,0,.3,0,.5h1.3c0-.2,0-.3,0-.5,0-1.5,1.2-2.6,2.6-2.6s2.6,1.2,2.6,2.6,0,.3,0,.5h.5c.3,0,.5-.2.5-.5v-2c0-1.4-1.1-2.5-2.5-2.5h-.2l-1.3-3c0-.2-.3-.3-.5-.3h-6.3c-.2,0-.5.2-.5.4l-.5,2.9h-1.3c-.3,0-.5.2-.5.5v4.1c0,.3.2.5.5.5Zm9.2-5.1h-3.9v-2.3h2.9l1,2.3Zm-6.5-2.3h1.6v2.3h-2l.4-2.3Z"/>
</svg>